# xmcd
#
# Track frame offsets:
#	150
#	17575
#	36625
#	60500
#	78625
#	100625
#	116213
#	133750
#	158563
#	173725
#
# Disc length: 2566 seconds
#
# Revision: 3
# Processed by: cddbd v1.5.2PL0 Copyright (c) Steve Scherf et al.
# Submitted via: EZCDAudioConverter 8.0.2.1
#
DISCID=7d0a040a
DTITLE=Mộng Thi - Love Song For Teenagers. Tuổi Biết Yêu 1
DYEAR=2005
DGENRE=World Pop
TTITLE0=Mộng Thi - Cô bé có chiếc răng khểnh
TTITLE1=Mộng Thi - Bâng khuâng điều gì
TTITLE2=Mộng Thi - Cây điệp vàng
TTITLE3=Tô Hà - Chúc mùng sinh nhật
TTITLE4=Mộng Thi - Cảm xúc chiều mưa
TTITLE5=Mộng Thi - Gió chiều
TTITLE6=Mộng Thi - Phố xa
TTITLE7=Cao Duy - Mặt trời bé con
TTITLE8=Mộng Thi - Đi tìm một nửa hồn nhiên
TTITLE9=Mộng Thi - Tuổi đời mênh mông
EXTD=
EXTT0=
EXTT1=
EXTT2=
EXTT3=
EXTT4=
EXTT5=
EXTT6=
EXTT7=
EXTT8=
EXTT9=
PLAYORDER=
